<?xml version="1.0" encoding="UTF-8" standalone="no"?>
<!DOCTYPE svg PUBLIC "-//W3C//DTD SVG 1.1//EN"
 "http://www.w3.org/Graphics/SVG/1.1/DTD/svg11.dtd">
<!-- Generated by graphviz version 2.43.0 (0)
 -->
<!-- Title: restake_xray Pages: 1 -->
<svg width="651pt" height="156pt"
 viewBox="0.00 0.00 650.52 156.00" xmlns="http://www.w3.org/2000/svg" xmlns:xlink="http://www.w3.org/1999/xlink">
<g id="graph0" class="graph" transform="scale(1 1) rotate(0) translate(4 152)">
<title>restake_xray</title>
<polygon fill="white" stroke="transparent" points="-4,4 -4,-152 646.52,-152 646.52,4 -4,4"/>
<!-- LRT: cmETH -->
<g id="node1" class="node">
<title>LRT: cmETH</title>
<polygon fill="#dbeafe" stroke="black" points="98,-124 0,-124 0,-88 98,-88 98,-124"/>
<text text-anchor="middle" x="49" y="-102.3" font-family="sans-serif" font-size="14.00">LRT: cmETH</text>
</g>
<!-- Op: P2P -->
<g id="node3" class="node">
<title>Op: P2P</title>
<ellipse fill="none" stroke="black" cx="241.29" cy="-130" rx="46.29" ry="18"/>
<text text-anchor="middle" x="241.29" y="-126.3" font-family="sans-serif" font-size="14.00">Op: P2P</text>
</g>
<!-- LRT: cmETH&#45;&gt;Op: P2P -->
<g id="edge1" class="edge">
<title>LRT: cmETH&#45;&gt;Op: P2P</title>
<path fill="none" stroke="black" d="M98.02,-112.06C125.18,-115.48 159.2,-119.77 187.16,-123.3"/>
<polygon fill="black" stroke="black" points="186.81,-126.78 197.16,-124.56 187.68,-119.84 186.81,-126.78"/>
<text text-anchor="middle" x="130" y="-120.8" font-family="Times,serif" font-size="14.00">600</text>
</g>
<!-- Op: Luganodes -->
<g id="node4" class="node">
<title>Op: Luganodes</title>
<ellipse fill="none" stroke="black" cx="241.29" cy="-75" rx="79.09" ry="18"/>
<text text-anchor="middle" x="241.29" y="-71.3" font-family="sans-serif" font-size="14.00">Op: Luganodes</text>
</g>
<!-- LRT: cmETH&#45;&gt;Op: Luganodes -->
<g id="edge2" class="edge">
<title>LRT: cmETH&#45;&gt;Op: Luganodes</title>
<path fill="none" stroke="black" d="M98.3,-97.92C104.26,-96.93 110.27,-95.94 116,-95 132.16,-92.35 149.52,-89.54 165.98,-86.89"/>
<polygon fill="black" stroke="black" points="166.78,-90.31 176.09,-85.26 165.66,-83.39 166.78,-90.31"/>
<text text-anchor="middle" x="130" y="-98.8" font-family="Times,serif" font-size="14.00">400</text>
</g>
<!-- LRT: ezETH -->
<g id="node2" class="node">
<title>LRT: ezETH</title>
<polygon fill="#dbeafe" stroke="black" points="95,-59 3,-59 3,-23 95,-23 95,-59"/>
<text text-anchor="middle" x="49" y="-37.3" font-family="sans-serif" font-size="14.00">LRT: ezETH</text>
</g>
<!-- LRT: ezETH&#45;&gt;Op: Luganodes -->
<g id="edge3" class="edge">
<title>LRT: ezETH&#45;&gt;Op: Luganodes</title>
<path fill="none" stroke="black" d="M95.1,-49.06C117.02,-52.98 143.91,-57.78 168.56,-62.18"/>
<polygon fill="black" stroke="black" points="168.14,-65.66 178.6,-63.98 169.37,-58.77 168.14,-65.66"/>
<text text-anchor="middle" x="130" y="-59.8" font-family="Times,serif" font-size="14.00">500</text>
</g>
<!-- Op: 0xop3 -->
<g id="node5" class="node">
<title>Op: 0xop3</title>
<ellipse fill="none" stroke="black" cx="241.29" cy="-18" rx="57.69" ry="18"/>
<text text-anchor="middle" x="241.29" y="-14.3" font-family="sans-serif" font-size="14.00">Op: 0xop3</text>
</g>
<!-- LRT: ezETH&#45;&gt;Op: 0xop3 -->
<g id="edge4" class="edge">
<title>LRT: ezETH&#45;&gt;Op: 0xop3</title>
<path fill="none" stroke="black" d="M95.28,-23.01C102.13,-20.93 109.18,-19.15 116,-18 134.85,-14.81 155.53,-13.83 174.53,-13.91"/>
<polygon fill="black" stroke="black" points="174.54,-17.41 184.58,-14.05 174.63,-10.41 174.54,-17.41"/>
<text text-anchor="middle" x="130" y="-21.8" font-family="Times,serif" font-size="14.00">300</text>
</g>
<!-- AVS: EigenDA -->
<g id="node6" class="node">
<title>AVS: EigenDA</title>
<polygon fill="#fee2e2" stroke="black" points="500.06,-120 396.33,-102 500.06,-84 603.79,-102 500.06,-120"/>
<text text-anchor="middle" x="500.06" y="-98.3" font-family="sans-serif" font-size="14.00">AVS: EigenDA</text>
</g>
<!-- Op: P2P&#45;&gt;AVS: EigenDA -->
<g id="edge5" class="edge">
<title>Op: P2P&#45;&gt;AVS: EigenDA</title>
<path fill="none" stroke="black" d="M285.85,-125.25C324.03,-121.09 380.31,-114.95 425.47,-110.02"/>
<polygon fill="black" stroke="black" points="425.95,-113.49 435.51,-108.93 425.19,-106.53 425.95,-113.49"/>
</g>
<!-- Op: Luganodes&#45;&gt;AVS: EigenDA -->
<g id="edge6" class="edge">
<title>Op: Luganodes&#45;&gt;AVS: EigenDA</title>
<path fill="none" stroke="black" d="M313.47,-82.49C348.05,-86.12 389.59,-90.49 424.6,-94.17"/>
<polygon fill="black" stroke="black" points="424.45,-97.67 434.76,-95.24 425.18,-90.71 424.45,-97.67"/>
</g>
<!-- AVS: 0xavsO…ACLE -->
<g id="node7" class="node">
<title>AVS: 0xavsO…ACLE</title>
<polygon fill="#fee2e2" stroke="black" points="500.06,-61 357.62,-43 500.06,-25 642.49,-43 500.06,-61"/>
<text text-anchor="middle" x="500.06" y="-39.3" font-family="sans-serif" font-size="14.00">AVS: 0xavsO…ACLE</text>
</g>
<!-- Op: Luganodes&#45;&gt;AVS: 0xavsO…ACLE -->
<g id="edge7" class="edge">
<title>Op: Luganodes&#45;&gt;AVS: 0xavsO…ACLE</title>
<path fill="none" stroke="black" d="M311.1,-66.42C343.95,-62.33 383.5,-57.4 417.82,-53.12"/>
<polygon fill="black" stroke="black" points="418.33,-56.59 427.82,-51.88 417.46,-49.64 418.33,-56.59"/>
</g>
<!-- Op: 0xop3&#45;&gt;AVS: 0xavsO…ACLE -->
<g id="edge8" class="edge">
<title>Op: 0xop3&#45;&gt;AVS: 0xavsO…ACLE</title>
<path fill="none" stroke="black" d="M296.75,-23.3C329.17,-26.46 371.15,-30.55 408.45,-34.18"/>
<polygon fill="black" stroke="black" points="408.55,-37.7 418.84,-35.19 409.22,-30.74 408.55,-37.7"/>
</g>
</g>
</svg>
